<?xml version="1.0" encoding="utf-8"?>
<!-- Generator: Adobe Illustrator 28.3.0, SVG Export Plug-In . SVG Version: 6.00 Build 0)  -->
<svg version="1.1" id="Layer_1" xmlns="http://www.w3.org/2000/svg" xmlns:xlink="http://www.w3.org/1999/xlink" x="0px" y="0px"
	 viewBox="0 0 250 250" style="enable-background:new 0 0 250 250;" xml:space="preserve">
<style type="text/css">
	.st0{fill:#FFFFFF;}
	.st1{fill-rule:evenodd;clip-rule:evenodd;fill:#FFFFFF;}
</style>
<g>
	<g>
		<path class="st0" d="M245.3,66.9h-78.8c-0.8,0-1.7,1.7-0.8,2.5l16.6,18.3l0.8,0.8h10.8c0.8,0,1.7,0.8,1.7,1.7v91.3
			c0,0.8,0.8,1.7,1.7,1.7h21.6c0.8,0,1.7-0.8,1.7-1.7V90.1c0-0.8,0.8-1.7,1.7-1.7h25.7c0.8,0,1.7-0.8,1.7-1.7V67.7
			C247,66.9,246.2,66.9,245.3,66.9z"/>
		<path class="st1" d="M108.4,167.3c-0.8,0.8-0.8,1.7-0.8,2.5l3.3,10c0,0.8,0,1.7-0.8,1.7H91.8c-0.8,0-0.8,0-0.8-0.8l-40.7-112
			c0-0.8,0-1.7,0.8-1.7h18.3c0.8,0,0.8,0,0.8,0.8L86,110.9c0,0,0,0.8,0.8,0.8c0,0,0.8,0,0.8-0.8c0.8-2.5,1.7-5,2.5-7.5
			c0.8-0.8,0-2.5-0.8-3.3l-5-5c-0.8-0.8-0.8-2.5,0-3.3l14.9-14.9c0.8-0.8,2.5-0.8,3.3,0l5,5c0.8,0.8,2.5,0.8,3.3,0.8
			c1.7-0.8,4.1-1.7,6.6-2.5c0.8,0,1.7-1.7,1.7-2.5v-8.3c0-1.7,0.8-2.5,2.5-2.5h20.7c1.7,0,2.5,0.8,2.5,2.5V76c0,0.8,0.8,2.5,1.7,2.5
			c2.5,0.8,4.1,1.7,6.6,2.5c0.8,0.8,2.5,0,3.3-0.8l5-5c0.8-0.8,2.5-0.8,3.3,0l14.9,14.9c0.8,0.8,0.8,2.5,0,3.3l-5,5
			c-0.8,0.8-0.8,1.7-0.8,3.3c0.8,1.7,1.7,4.1,2.5,6.6c0,0.8,1.7,1.7,2.5,1.7h7.5c1.7,0,2.5,0.8,2.5,2.5v20.7c0,1.7-0.8,2.5-2.5,2.5
			h-8.3c-0.8,0-2.5,0.8-2.5,1.7c-0.8,1.7-1.7,4.1-2.5,5.8c-0.8,0.8,0,2.5,0.8,3.3l5.8,5.8c0.8,0.8,0.8,2.5,0,3.3l-14.9,14.9
			c-0.8,0.8-2.5,0.8-3.3,0l-5.8-5.8c0,0.8-1.7,0.8-2.5,0.8c-1.7,0.8-3.3,1.7-5.8,2.5c-0.8,0-1.7,1.7-1.7,2.5v8.3
			c0,1.7-0.8,2.5-2.5,2.5h-20.7c-1.7,0-2.5-0.8-2.5-2.5v-8.3c0-0.8-0.8-2.5-1.7-2.5c-1.7-0.8-4.1-1.7-5.8-2.5
			c-0.8-0.8-2.5,0-3.3,0.8L108.4,167.3z M159,123.3c0,14.1-11.6,26.6-25.7,26.6c-14.1,0-25.7-11.6-25.7-26.6
			c0-14.1,11.6-26.6,25.7-26.6C147.4,97.6,159,109.2,159,123.3z"/>
		<path class="st0" d="M57.8,100.9v-0.8L46.2,69.4c-0.8-0.8-1.7-0.8-2.5,0L0.5,179.8c0,0.8,0,1.7,0.8,1.7h25.7c0.8,0,0.8,0,0.8-0.8
			L57.8,100.9z"/>
	</g>
</g>
</svg>
